<mxfile host="embed.diagrams.net" modified="2024-02-12T23:50:47.694Z" agent="Mozilla/5.0 (X11; Linux x86_64; rv:122.0) Gecko/20100101 Firefox/122.0" etag="pivxcm6J30SXjBYGl0I7" version="23.1.3" type="embed">
  <diagram id="vziDtlENBfOYT-fO2tEC" name="Page-1">
    <mxGraphModel grid="1" page="1" gridSize="10" guides="1" tooltips="1" connect="1" arrows="1" fold="1" pageScale="1" pageWidth="850" pageHeight="1100" math="0" shadow="0">
      <root>
        <mxCell id="0" />
        <mxCell id="1" parent="0" />
        <mxCell id="QmGt8hTJW6YJiMxJ7us3-1" style="rounded=0;orthogonalLoop=1;jettySize=auto;html=1;entryX=0;entryY=0.5;entryDx=0;entryDy=0;" edge="1" parent="1" source="QmGt8hTJW6YJiMxJ7us3-7" target="QmGt8hTJW6YJiMxJ7us3-12">
          <mxGeometry relative="1" as="geometry" />
        </mxCell>
        <mxCell id="QmGt8hTJW6YJiMxJ7us3-2" style="rounded=0;orthogonalLoop=1;jettySize=auto;html=1;entryX=0;entryY=0.5;entryDx=0;entryDy=0;" edge="1" parent="1" source="QmGt8hTJW6YJiMxJ7us3-7" target="QmGt8hTJW6YJiMxJ7us3-16">
          <mxGeometry relative="1" as="geometry" />
        </mxCell>
        <mxCell id="QmGt8hTJW6YJiMxJ7us3-3" style="rounded=0;orthogonalLoop=1;jettySize=auto;html=1;" edge="1" parent="1" source="QmGt8hTJW6YJiMxJ7us3-7" target="QmGt8hTJW6YJiMxJ7us3-13">
          <mxGeometry relative="1" as="geometry" />
        </mxCell>
        <mxCell id="QmGt8hTJW6YJiMxJ7us3-4" style="rounded=0;orthogonalLoop=1;jettySize=auto;html=1;entryX=0;entryY=0.5;entryDx=0;entryDy=0;" edge="1" parent="1" source="QmGt8hTJW6YJiMxJ7us3-7" target="QmGt8hTJW6YJiMxJ7us3-14">
          <mxGeometry relative="1" as="geometry" />
        </mxCell>
        <mxCell id="QmGt8hTJW6YJiMxJ7us3-5" style="rounded=0;orthogonalLoop=1;jettySize=auto;html=1;entryX=0;entryY=0.5;entryDx=0;entryDy=0;" edge="1" parent="1" source="QmGt8hTJW6YJiMxJ7us3-7" target="QmGt8hTJW6YJiMxJ7us3-11">
          <mxGeometry relative="1" as="geometry" />
        </mxCell>
        <mxCell id="QmGt8hTJW6YJiMxJ7us3-6" style="edgeStyle=orthogonalEdgeStyle;rounded=0;orthogonalLoop=1;jettySize=auto;html=1;curved=1;" edge="1" parent="1" source="QmGt8hTJW6YJiMxJ7us3-7" target="QmGt8hTJW6YJiMxJ7us3-10">
          <mxGeometry relative="1" as="geometry">
            <Array as="points">
              <mxPoint x="-470" y="2650" />
              <mxPoint x="-470" y="2670" />
            </Array>
          </mxGeometry>
        </mxCell>
        <mxCell id="QmGt8hTJW6YJiMxJ7us3-7" value="User" style="shape=umlActor;verticalLabelPosition=bottom;verticalAlign=top;html=1;outlineConnect=0;" vertex="1" parent="1">
          <mxGeometry x="-800" y="2620" width="30" height="60" as="geometry" />
        </mxCell>
        <mxCell id="QmGt8hTJW6YJiMxJ7us3-8" style="rounded=0;orthogonalLoop=1;jettySize=auto;html=1;dashed=1;" edge="1" parent="1" source="QmGt8hTJW6YJiMxJ7us3-10" target="QmGt8hTJW6YJiMxJ7us3-13">
          <mxGeometry relative="1" as="geometry" />
        </mxCell>
        <mxCell id="QmGt8hTJW6YJiMxJ7us3-9" value="Extend" style="edgeLabel;html=1;align=center;verticalAlign=middle;resizable=0;points=[];" connectable="0" vertex="1" parent="QmGt8hTJW6YJiMxJ7us3-8">
          <mxGeometry x="-0.0375" relative="1" as="geometry">
            <mxPoint as="offset" />
          </mxGeometry>
        </mxCell>
        <mxCell id="QmGt8hTJW6YJiMxJ7us3-10" value="&lt;div&gt;Mark bills&lt;/div&gt;" style="ellipse;whiteSpace=wrap;html=1;" vertex="1" parent="1">
          <mxGeometry x="-326" y="2630" width="120" height="80" as="geometry" />
        </mxCell>
        <mxCell id="QmGt8hTJW6YJiMxJ7us3-11" value="&lt;div&gt;View bills&lt;/div&gt;" style="ellipse;whiteSpace=wrap;html=1;" vertex="1" parent="1">
          <mxGeometry x="-650" y="2360" width="120" height="80" as="geometry" />
        </mxCell>
        <mxCell id="QmGt8hTJW6YJiMxJ7us3-12" value="&lt;div&gt;Filter bills&lt;/div&gt;" style="ellipse;whiteSpace=wrap;html=1;" vertex="1" parent="1">
          <mxGeometry x="-650" y="2460" width="120" height="80" as="geometry" />
        </mxCell>
        <mxCell id="QmGt8hTJW6YJiMxJ7us3-13" value="Sync to Calendar" style="ellipse;whiteSpace=wrap;html=1;" vertex="1" parent="1">
          <mxGeometry x="-650" y="2660" width="120" height="80" as="geometry" />
        </mxCell>
        <mxCell id="QmGt8hTJW6YJiMxJ7us3-14" value="Write notes" style="ellipse;whiteSpace=wrap;html=1;" vertex="1" parent="1">
          <mxGeometry x="-650" y="2760" width="120" height="80" as="geometry" />
        </mxCell>
        <mxCell id="QmGt8hTJW6YJiMxJ7us3-15" value="Reset Password" style="ellipse;whiteSpace=wrap;html=1;" vertex="1" parent="1">
          <mxGeometry x="-650" y="2860" width="120" height="80" as="geometry" />
        </mxCell>
        <mxCell id="QmGt8hTJW6YJiMxJ7us3-16" value="Export bills" style="ellipse;whiteSpace=wrap;html=1;" vertex="1" parent="1">
          <mxGeometry x="-650" y="2560" width="120" height="80" as="geometry" />
        </mxCell>
        <mxCell id="QmGt8hTJW6YJiMxJ7us3-17" value="&lt;div&gt;Login&lt;/div&gt;" style="ellipse;whiteSpace=wrap;html=1;" vertex="1" parent="1">
          <mxGeometry x="-230" y="2790" width="120" height="80" as="geometry" />
        </mxCell>
        <mxCell id="QmGt8hTJW6YJiMxJ7us3-18" style="rounded=0;orthogonalLoop=1;jettySize=auto;html=1;entryX=1;entryY=0.5;entryDx=0;entryDy=0;dashed=1;" edge="1" parent="1" source="QmGt8hTJW6YJiMxJ7us3-17" target="QmGt8hTJW6YJiMxJ7us3-13">
          <mxGeometry relative="1" as="geometry" />
        </mxCell>
        <mxCell id="QmGt8hTJW6YJiMxJ7us3-19" value="extend" style="edgeLabel;html=1;align=center;verticalAlign=middle;resizable=0;points=[];" connectable="0" vertex="1" parent="QmGt8hTJW6YJiMxJ7us3-18">
          <mxGeometry x="0.0183" y="-1" relative="1" as="geometry">
            <mxPoint as="offset" />
          </mxGeometry>
        </mxCell>
        <mxCell id="QmGt8hTJW6YJiMxJ7us3-20" style="rounded=0;orthogonalLoop=1;jettySize=auto;html=1;entryX=1;entryY=0.5;entryDx=0;entryDy=0;dashed=1;" edge="1" parent="1" source="QmGt8hTJW6YJiMxJ7us3-17" target="QmGt8hTJW6YJiMxJ7us3-14">
          <mxGeometry relative="1" as="geometry" />
        </mxCell>
        <mxCell id="QmGt8hTJW6YJiMxJ7us3-21" value="extend" style="edgeLabel;html=1;align=center;verticalAlign=middle;resizable=0;points=[];" connectable="0" vertex="1" parent="QmGt8hTJW6YJiMxJ7us3-20">
          <mxGeometry x="-0.0525" y="-2" relative="1" as="geometry">
            <mxPoint as="offset" />
          </mxGeometry>
        </mxCell>
        <mxCell id="QmGt8hTJW6YJiMxJ7us3-22" style="rounded=0;orthogonalLoop=1;jettySize=auto;html=1;dashed=1;" edge="1" parent="1" source="QmGt8hTJW6YJiMxJ7us3-17" target="QmGt8hTJW6YJiMxJ7us3-10">
          <mxGeometry relative="1" as="geometry">
            <mxPoint x="-368" y="2739" as="sourcePoint" />
            <mxPoint x="-520" y="2710" as="targetPoint" />
          </mxGeometry>
        </mxCell>
        <mxCell id="QmGt8hTJW6YJiMxJ7us3-23" value="extend" style="edgeLabel;html=1;align=center;verticalAlign=middle;resizable=0;points=[];" connectable="0" vertex="1" parent="QmGt8hTJW6YJiMxJ7us3-22">
          <mxGeometry x="0.0183" y="-1" relative="1" as="geometry">
            <mxPoint as="offset" />
          </mxGeometry>
        </mxCell>
        <mxCell id="QmGt8hTJW6YJiMxJ7us3-24" value="" style="endArrow=classic;html=1;rounded=0;entryX=0;entryY=0.5;entryDx=0;entryDy=0;" edge="1" parent="1" source="QmGt8hTJW6YJiMxJ7us3-7" target="QmGt8hTJW6YJiMxJ7us3-15">
          <mxGeometry width="50" height="50" relative="1" as="geometry">
            <mxPoint x="-490" y="2790" as="sourcePoint" />
            <mxPoint x="-440" y="2740" as="targetPoint" />
          </mxGeometry>
        </mxCell>
      </root>
    </mxGraphModel>
  </diagram>
</mxfile>
